lowerlimbmodel_states
version=1
nRows=215
nColumns=3
inDegrees=yes
endheader
time	q1	q1_u
      3.74090255	    141.69594195	    912.08621972
      3.75714766	    156.24696638	    871.30322093
      3.76666667	    164.27650437	    800.31115050
      3.77339276	    169.31015682	    689.21168949
      3.78457598	    175.16328486	    314.53866813
      3.79575919	    175.63544933	   -234.90341854
      3.80000000	    174.23191608	   -421.46342377
      3.80303109	    172.78041920	   -533.52009867
      3.81030298	    168.14914311	   -722.50623983
      3.82195517	    158.80914846	   -855.51922878
      3.83333333	    148.79437215	   -897.77125116
      3.83640768	    146.02306374	   -903.81127261
      3.85086019	    132.79589447	   -925.47086562
      3.86666667	    117.99191756	   -948.04193834
      3.87559603	    109.46546438	   -961.81764255
      3.90000000	     85.49834650	  -1002.31906556
      3.91961780	     65.52408273	  -1034.01578939
      3.93264600	     51.92967179	  -1052.33188151
      3.93333333	     51.20605143	  -1053.19200494
      3.94748990	     36.19214974	  -1065.78772821
      3.96106774	     21.77416744	  -1047.27401583
      3.96666667	     15.99175569	  -1008.51378541
      3.97358560	      9.37399040	   -890.04859955
      3.98375134	      2.22077773	   -456.00770200
      3.99391709	      1.13816088	    257.05248340
      3.99983547	      3.78150178	    617.67234682
      4.00000000	      3.88380563	    625.96080661
      4.00575385	      8.19467561	    852.63776769
      4.01489775	     16.87683153	   1015.68848634
      4.02743390	     30.02554556	   1064.43285836
      4.03333333	     36.30997148	   1065.35242670
      4.03997005	     43.36831882	   1060.76798790
      4.05998546	     64.36342658	   1035.18225451
      4.06666667	     71.24458433	   1024.83694340
      4.09566556	    100.27145495	    976.69208903
      4.10000000	    104.48929528	    969.56969916
      4.12327266	    126.63052343	    934.05541670
      4.13333333	    135.95853260	    920.23743957
      4.13929103	    141.41534435	    911.63286652
      4.15560720	    156.02580494	    871.46564159
      4.16666667	    165.28360907	    783.20143064
      4.17192337	    169.16924546	    692.42178121
      4.18314915	    175.09951141	    320.86547921
      4.19437493	    175.64586757	   -229.10335568
      4.20000000	    173.65259792	   -470.03948086
      4.20159228	    172.85852395	   -526.93956577
      4.20880962	    168.30574702	   -717.15517327
      4.22026859	    159.17324056	   -851.89733605
      4.23333333	    147.67268717	   -899.36955513
      4.23481801	    146.33471995	   -902.22874525
      4.24936743	    133.03899974	   -924.19476376
      4.26666667	    116.84048712	   -948.96932821
      4.27388833	    109.94720682	   -960.13869662
      4.30000000	     84.31126438	  -1003.45420936
      4.31744473	     66.56115593	  -1031.66244000
      4.33074859	     52.70636318	  -1050.59121059
      4.33333333	     49.98642345	  -1053.82257181
      4.34549836	     37.09126306	  -1064.67216520
      4.35920607	     22.53381566	  -1049.46034667
      4.36666667	     14.85821202	   -994.85406743
      4.37167698	     10.07765608	   -907.99963204
      4.38233540	      2.36461675	   -472.94678097
      4.39299382	      1.20354149	    270.65178499
      4.39904538	      3.99936217	    633.59861540
      4.40000000	      4.62600899	    678.96171980
      4.40509695	      8.59941433	    865.02843749
      4.41457970	     17.69257753	   1021.70584855
      4.42687324	     30.60750006	   1063.91082887
      4.43333333	     37.48361178	   1063.98345925
      4.43916678	     43.67966712	   1059.59498470
      4.45950300	     64.98084804	   1033.35909176
      4.46666667	     72.34288756	   1022.19510345
      4.49577294	    101.39575407	    973.80630092
      4.50000000	    105.49735466	    966.88828512
      4.52242590	    126.78937836	    932.79608436
      4.53333333	    136.88242690	    917.80336818
      4.53861175	    141.70653143	    910.09926789
      4.55488355	    156.24857646	    869.23370378
      4.56666667	    166.02934066	    768.44140393
      4.57115535	    169.29819529	    686.98694572
      4.58235534	    175.13635217	    312.66924187
      4.59355534	    175.59540556	   -235.35568247
      4.60000000	    173.17136131	   -504.07312378
      4.60085245	    172.72919913	   -533.38058276
      4.60814957	    168.08536763	   -721.69564441
      4.61986257	    158.70971051	   -854.12113342
      4.63333333	    146.83289840	   -900.15132906
      4.63433049	    145.93412339	   -902.00860702
      4.64879841	    132.71923839	   -923.64646201
      4.66666667	    115.98989858	   -949.33381049
      4.67362933	    109.34250487	   -960.15688330
      4.70000000	     83.44464541	  -1003.95920824
      4.71783381	     65.28527126	  -1032.63249659
      4.73082321	     51.74999612	  -1050.84182304
      4.73333333	     49.10811395	  -1053.91480202
      4.74570988	     35.98989387	  -1064.16499837
      4.75927639	     21.60992682	  -1044.86211315
      4.76666667	     14.05461704	   -983.71124286
      4.77284290	      8.33911181	   -855.97976376
      4.78243773	      1.97137317	   -416.38050570
      4.79203257	      1.17272437	    259.78969736
      4.79796768	      3.83743822	    619.50875979
      4.80000000	      5.19475464	    713.90927866
      4.80390278	      8.27033632	    853.24699657
      4.81310770	     17.01130464	   1015.22794943
      4.82561717	     30.11738752	   1062.90512277
      4.83333333	     38.32441080	   1062.87707783
      4.83812663	     43.41166637	   1059.13256343
      4.85820422	     64.43806881	   1033.43629624
      4.86666667	     73.12701641	   1020.24184449
      4.89398483	    100.38148078	    974.76956048
      4.90000000	    106.21501121	    964.92477866
      4.92156215	    126.66000684	    932.19624610
      4.93333333	    137.53805934	    915.98169946
      4.93762694	    141.45730443	    909.70330510
      4.95396182	    156.05209583	    869.38765902
      4.96666667	    166.54774823	    757.08715135
      4.97029669	    169.17305957	    689.85499203
      4.98153401	    175.07973298	    318.32307137
      4.99277134	    175.60515983	   -230.15670341
      4.99706813	    174.19970519	   -418.75372597
      4.99907373	    173.28228450	   -494.69624359
      4.99985860	    172.88317842	   -522.08115613
      5.00000000	    172.80898400	   -527.06502333
      5.00007895	    172.76731635	   -528.45180126
      5.00029930	    172.65077065	   -529.38129183
      5.00140104	    172.06497339	   -534.02019886
      5.00690974	    169.05980044	   -556.97216360
      5.03333333	    152.96838844	   -657.83115455
      5.03445324	    152.22958224	   -661.62584311
      5.06666667	    129.42767682	   -745.61939909
      5.07684508	    121.75495529	   -761.30311979
      5.10000000	    103.88787754	   -782.52953858
      5.11923693	     88.61047509	   -806.04505107
      5.13333333	     77.01384516	   -836.54834294
      5.16162877	     52.47896343	   -893.04802897
      5.16666667	     47.96979008	   -896.87046115
      5.20000000	     18.42651736	   -857.63905727
      5.20402061	     15.00111510	   -845.81551879
      5.23333333	     -8.15789254	   -726.82672848
      5.24641246	    -17.25301276	   -661.84702134
      5.26666667	    -29.58605274	   -556.69384427
      5.30000000	    -45.27089626	   -385.25756068
      5.30205184	    -46.05127869	   -375.14452114
      5.33333333	    -55.46524870	   -228.84534522
      5.35769122	    -59.73949599	   -123.40054801
      5.36666667	    -60.68053721	    -85.94447547
      5.40000000	    -61.26545624	     50.73724334
      5.41333061	    -60.21900088	    105.88160297
      5.43333333	    -57.25701755	    191.12988701
      5.46197750	    -49.94334921	    321.20199743
      5.46666667	    -48.38420084	    343.64069594
      5.50000000	    -34.16312879	    511.63415922
      5.51062439	    -28.43457028	    567.20902379
      5.53333333	    -14.18618915	    685.12444376
      5.55927128	      5.16052965	    803.40785206
      5.56666667	     11.20934977	    830.75042695
      5.60000000	     40.29641021	    897.54717639
      5.60791817	     47.40297518	    897.31282326
      5.63333333	     69.75325284	    856.43359562
      5.65161059	     85.05218810	    814.48481318
      5.66666667	     97.14769592	    791.57146113
      5.69530302	    119.41863035	    765.24659419
      5.70000000	    122.99940935	    759.33425589
      5.73333333	    147.23424409	    685.58733486
      5.73899544	    151.06634445	    667.68240545
      5.76666667	    168.15097257	    563.91257540
      5.78268786	    176.65551963	    496.43756547
      5.80000000	    184.59987978	    421.97405509
      5.83333333	    196.29213797	    280.24380161
      5.84835995	    200.04364217	    218.72767704
      5.86666667	    203.38734248	    146.45905179
      5.90000000	    206.13922461	     19.37020874
      5.91403203	    206.03691759	    -33.48967577
      5.93333333	    204.68702007	   -106.79630374
      5.96450835	    199.46446589	   -229.19385364
      5.96666667	    198.96029745	   -237.93490910
      6.00000000	    188.72222732	   -377.49016018
      6.01498466	    182.58447486	   -442.06995087
      6.03333333	    173.73503943	   -521.11356727
      6.06546098	    154.90447668	   -647.85420869
      6.06666667	    154.12078124	   -652.06849135
      6.10000000	    130.72787882	   -742.68595175
      6.11089590	    122.53589801	   -760.27068306
      6.13333333	    105.25323745	   -781.33995382
      6.15633083	     86.97144110	   -809.69966030
      6.16666667	     78.46803444	   -832.02899591
      6.20000000	     49.54155495	   -895.71572270
      6.20176575	     47.95986360	   -896.84586165
      6.23333333	     19.94642204	   -861.91780641
      6.24720068	      8.27433220	   -817.93444825
      6.26666667	     -6.85844286	   -735.12053132
      6.29263560	    -24.29002520	   -603.98824215
      6.30000000	    -28.59422748	   -565.43397570
      6.33333333	    -44.55961438	   -394.04418382
      6.34880082	    -50.07305000	   -318.72459878
      6.36666667	    -55.02921230	   -236.44386257
      6.40000000	    -60.48700418	    -92.97915933
      6.40496604	    -60.89706749	    -72.39265154
      6.43333333	    -61.30627450	     43.90046881
      6.46113125	    -58.47681024	    160.01717067
      6.46666667	    -57.52531756	    183.90148116
      6.50000000	    -48.90508676	    335.76997086
      6.50470277	    -47.27265821	    358.45877853
      6.53333333	    -34.94567209	    503.47341924
      6.55969650	    -19.86989189	    640.93591038
      6.56666667	    -15.27045965	    676.64921848
      6.60000000	      9.91612764	    825.16798712
      6.61469023	     22.36236800	    869.29452865
      6.63333333	     38.87090520	    896.06667365
      6.65625603	     59.35013616	    882.18760213
      6.66666667	     68.41269847	    861.19688753
      6.69782183	     94.14936215	    794.42329822
      6.70000000	     95.87753491	    791.59025098
      6.73333333	    121.73631976	    759.73992336
